# xmcd CD database file
#
# Track frame offsets:
#	150
#	17129
#	35599
#	52566
#	71522
#	87800
#	112278
#	133464
#	152771
#	168381
#	184695
#	199868
#
# Disc length: 2910 seconds
#
# Revision: 1
# Processed by: cddbd v1.5.2PL0 Copyright (c) Steve Scherf et al.
# Submitted via: jetAudio 7
#
DISCID=a30b5c0c
DTITLE=Various Artist - Top 25 Country Songs of Faith
DYEAR=2014
DGENRE=Country
TTITLE0=The Man I Want To Be
TTITLE1=Love Is Stronger
TTITLE2=Holes in the Floor of Heaven
TTITLE3=Ten Thousand Angels Cried
TTITLE4=This is God
TTITLE5=That's What I Love About Sunday
TTITLE6=When It's My Time
TTITLE7=What Would Jesus Undo
TTITLE8=Angel Band
TTITLE9=Daddy Sang Bass
TTITLE10=I'll Fly Away
TTITLE11=The Duck Dynasty Song
EXTD=
EXTT0=
EXTT1=
EXTT2=
EXTT3=
EXTT4=
EXTT5=
EXTT6=
EXTT7=
EXTT8=
EXTT9=
EXTT10=
EXTT11=
PLAYORDER=
